<?xml version="1.0" encoding="utf-8"?>
<!-- Generator: Adobe Illustrator 16.0.0, SVG Export Plug-In . SVG Version: 6.00 Build 0)  -->
<!DOCTYPE svg PUBLIC "-//W3C//DTD SVG 1.1//EN" "http://www.w3.org/Graphics/SVG/1.1/DTD/svg11.dtd">
<svg version="1.1" id="Camada_1" xmlns="http://www.w3.org/2000/svg" xmlns:xlink="http://www.w3.org/1999/xlink" x="0px" y="0px"
	 width="20.07px" height="20px" viewBox="0 0 20.07 20" enable-background="new 0 0 20.07 20" xml:space="preserve">
<g display="none">
	<g display="inline">
		<g>
			<path fill="#92C9BB" d="M8.934,17.255c-4.608,0-8.356-3.749-8.356-8.356s3.749-8.356,8.356-8.356
				c4.607,0,8.356,3.749,8.356,8.356S13.541,17.255,8.934,17.255z M8.934,3.572c-2.937,0-5.326,2.39-5.326,5.326
				s2.389,5.326,5.326,5.326c2.937,0,5.326-2.39,5.326-5.326S11.87,3.572,8.934,3.572z"/>
		</g>
		<g>
			<path fill="#92C9BB" d="M17.978,19.459c-0.371,0-0.743-0.136-1.035-0.409l-4.316-4.041c-0.611-0.571-0.643-1.53-0.071-2.142
				c0.572-0.61,1.531-0.643,2.142-0.07l4.316,4.041c0.611,0.571,0.642,1.53,0.07,2.142C18.786,19.298,18.383,19.459,17.978,19.459z"
				/>
		</g>
	</g>
</g>
<g>
	<g>
		<g>
			<path fill="#92C9BB" d="M18.939,19.262H1.131c-0.449,0-0.854-0.206-1.035-0.616c-0.181-0.411-0.102-0.859,0.201-1.189
				c0.141-0.153,3.518-3.745,9.785-3.745c6.278,0,9.565,3.625,9.703,3.779c0.295,0.333,0.369,0.753,0.186,1.159
				C19.789,19.056,19.385,19.262,18.939,19.262z M4.774,17h10.581c-1.299-0.564-3.058-1.13-5.273-1.13
				C7.867,15.87,6.093,16.436,4.774,17z"/>
		</g>
	</g>
	<g>
		<path fill="#92C9BB" d="M10.07,15.987c-3.293,0-5.972-3.249-5.972-7.244c0-3.994,2.679-7.243,5.972-7.243
			c3.292,0,5.972,3.249,5.972,7.243C16.042,12.738,13.363,15.987,10.07,15.987z M10.07,3.762c-2.046,0-3.71,2.234-3.71,4.981
			c0,2.748,1.665,4.982,3.71,4.982s3.71-2.234,3.71-4.982C13.78,5.996,12.116,3.762,10.07,3.762z"/>
	</g>
</g>
<g display="none">
	<g display="inline">
		<g>
			<path fill="#92C9BB" d="M17.402,4.834H2.668c-0.844,0-1.529-0.656-1.529-1.5s0.685-1.5,1.529-1.5h14.733
				c0.844,0,1.529,0.656,1.529,1.5S18.246,4.834,17.402,4.834z"/>
		</g>
	</g>
	<g display="inline">
		<g>
			<path fill="#92C9BB" d="M17.402,11.834H2.668c-0.844,0-1.529-0.656-1.529-1.5s0.685-1.5,1.529-1.5h14.733
				c0.844,0,1.529,0.656,1.529,1.5S18.246,11.834,17.402,11.834z"/>
		</g>
	</g>
	<g display="inline">
		<g>
			<path fill="#92C9BB" d="M17.402,18.834H2.668c-0.844,0-1.529-0.656-1.529-1.5s0.685-1.5,1.529-1.5h14.733
				c0.844,0,1.529,0.656,1.529,1.5S18.246,18.834,17.402,18.834z"/>
		</g>
	</g>
</g>
</svg>
