<?xml version="1.0" encoding="utf-8"?>
<!-- Generator: Adobe Illustrator 16.0.0, SVG Export Plug-In . SVG Version: 6.00 Build 0)  -->
<!DOCTYPE svg PUBLIC "-//W3C//DTD SVG 1.1//EN" "http://www.w3.org/Graphics/SVG/1.1/DTD/svg11.dtd">
<svg version="1.1" id="Camada_1" xmlns="http://www.w3.org/2000/svg" xmlns:xlink="http://www.w3.org/1999/xlink" x="0px" y="0px"
	 width="280.258px" height="81.243px" viewBox="0 0 280.258 81.243" enable-background="new 0 0 280.258 81.243"
	 xml:space="preserve">
<path fill="#5BC5F2" d="M88.103,1.35L73.78,40.784c-0.265,0.73,0.275,1.502,1.051,1.502h11.203c0.481,0,0.908-0.308,1.061-0.765
	l9.244-27.672l9.244,27.672c0.153,0.457,0.581,0.765,1.062,0.765h11.202c0.777,0,1.317-0.771,1.051-1.502L104.572,1.35
	c-0.161-0.442-0.581-0.736-1.051-0.736H89.155C88.684,0.613,88.264,0.907,88.103,1.35"/>
<path fill="#F3997B" d="M189.892,0.992l-13.149,14.941L163.596,0.992c-0.213-0.241-0.519-0.38-0.841-0.38h-9.406
	c-0.618,0-1.12,0.501-1.12,1.119v39.436c0,0.618,0.502,1.119,1.12,1.119h11.244c0.617,0,1.119-0.501,1.119-1.119V21.756
	l11.031,13.072l11.033-13.072v19.411c0,0.618,0.5,1.119,1.119,1.119h11.244c0.619,0,1.119-0.501,1.119-1.119V1.731
	c0-0.618-0.5-1.119-1.119-1.119h-9.406C190.411,0.612,190.104,0.751,189.892,0.992"/>
<path fill="#9185BE" d="M248.913,1.35l-14.323,39.435c-0.266,0.73,0.275,1.502,1.051,1.502h11.203c0.48,0,0.907-0.308,1.06-0.765
	l9.245-27.672l9.244,27.672c0.152,0.457,0.581,0.765,1.062,0.765h11.201c0.777,0,1.317-0.771,1.052-1.502L265.382,1.35
	c-0.161-0.442-0.581-0.736-1.051-0.736h-14.365C249.494,0.613,249.073,0.907,248.913,1.35"/>
<path fill="#0069A5" d="M28.62,21.182v8.357c-1.962,0.612-3.984,0.979-5.516,0.979c-5.576,0-9.193-3.247-9.193-9.008
	c0-5.884,3.617-9.132,8.581-9.132c3.553,0,6.716,0.878,9.358,2.546c0.527,0.333,1.225,0.16,1.544-0.376l4.933-8.271
	c0.306-0.513,0.151-1.17-0.342-1.508C33.901,1.971,28.469,0,22.185,0C9.867,0,0,7.967,0,21.511c0,13.422,9.867,21.389,22.185,21.389
	c6.149,0,13.837-2.682,17.837-5.731c0.273-0.208,0.425-0.537,0.425-0.88V21.182c0-0.618-0.501-1.119-1.119-1.119H29.74
	C29.122,20.063,28.62,20.563,28.62,21.182"/>
<path fill="#0069A5" d="M223.367,70.595c-0.859-0.399-2.642-0.797-4.088-0.797c-3.061,0-4.967,1.488-4.967,3.669
	c0,1.655,0.88,2.641,2.662,3.164l1.741,0.483c0.691,0.188,1.11,0.377,1.11,0.732c0,0.482-0.483,0.651-1.299,0.651
	c-1.112,0-2.411-0.503-3.418-1.027l-0.648,2.745c0.838,0.42,2.389,0.943,4.317,0.943c2.893,0,4.57-1.426,4.57-3.542
	c0-1.488-0.629-2.558-2.621-3.103l-1.949-0.524c-0.628-0.168-0.9-0.314-0.9-0.733c0-0.524,0.606-0.734,1.32-0.734
	c1.026,0,2.244,0.336,3.27,0.881L223.367,70.595z M236.822,69.986h-3.521v0.964c-0.692-0.733-1.74-1.152-3.102-1.152
	c-2.998,0-5.052,2.368-5.052,5.702c0,3.29,2.054,5.638,5.052,5.638c1.467,0,2.62-0.67,3.353-1.55
	c0.378,1.089,1.237,1.571,2.495,1.571c1.048,0,2.034-0.23,2.621-0.461l-0.125-2.788c-0.336,0.168-0.671,0.294-1.048,0.294
	c-0.524,0-0.671-0.461-0.671-1.007V69.986z M233.301,77.303c-0.545,0.481-1.32,0.796-2.096,0.796c-1.509,0-2.474-1.026-2.474-2.599
	c0-1.614,0.944-2.642,2.474-2.642c0.817,0,1.655,0.356,2.096,0.796V77.303z M247.845,69.986v6.897
	c-0.336,0.523-0.986,1.068-1.992,1.068c-1.426,0-1.844-0.692-1.844-2.139v-5.827h-3.522v6.331c0,2.81,1.195,4.842,4.025,4.842
	c1.53,0,2.788-0.503,3.605-1.426c0.399,1.007,1.259,1.426,2.453,1.426c1.049,0,2.076-0.21,2.621-0.461l-0.126-2.788
	c-0.355,0.168-0.712,0.294-1.069,0.294c-0.524,0-0.628-0.461-0.628-1.007v-7.211H247.845z M249.688,65.416h-3.458l-1.698,3.313
	h2.915L249.688,65.416z M262.756,66.066v4.863c-0.732-0.671-1.803-1.132-3.124-1.132c-2.976,0-5.051,2.347-5.051,5.66
	c0,3.312,2.075,5.701,5.051,5.701c1.594,0,2.684-0.607,3.375-1.488c0.398,1.069,1.258,1.488,2.495,1.488
	c1.027,0,2.075-0.23,2.62-0.461l-0.126-2.788c-0.398,0.168-0.754,0.294-1.048,0.294c-0.544,0-0.67-0.441-0.67-1.007V66.066H262.756z
	 M258.167,75.458c0-1.594,0.985-2.6,2.495-2.6c0.775,0,1.572,0.314,2.095,0.796v3.669c-0.461,0.42-1.299,0.775-2.095,0.775
	C259.13,78.099,258.167,77.072,258.167,75.458 M278.875,77.407c-0.692,0.503-1.971,1.048-3.144,1.048
	c-1.615,0-2.516-0.817-2.726-2.097h7.023c0.126-0.397,0.23-1.404,0.23-2.096c0-2.516-1.593-4.569-4.927-4.569
	c-3.521,0-5.826,2.515-5.826,5.807c0,3.249,1.886,5.743,6.015,5.743c1.867,0,3.522-0.566,4.655-1.489L278.875,77.407z
	 M277.198,74.137h-4.129c0.167-0.964,0.943-1.76,2.243-1.76c1.299,0,1.886,0.628,1.886,1.509V74.137z"/>
</svg>
