<?xml version="1.0" encoding="utf-8"?>
<!-- Generator: Adobe Illustrator 21.0.2, SVG Export Plug-In . SVG Version: 6.00 Build 0)  -->
<svg version="1.1" id="Camada_1" xmlns="http://www.w3.org/2000/svg" xmlns:xlink="http://www.w3.org/1999/xlink" x="0px" y="0px"
	 viewBox="0 0 215.2 58.2" style="enable-background:new 0 0 215.2 58.2;" xml:space="preserve" width="215.23px" height="58.193px">
<style type="text/css">
	.st0{fill:#0069A4;}
	.st1{fill:#5BC4F1;}
	.st2{fill:#F2987A;}
</style>
<g>
	<path class="st0" d="M0.6,34.6c0-1.5,1.2-2.7,2.8-2.7c0.3,0,0.6,0.1,0.9,0.1c2.1,0.8,5.5,1.8,9.6,1.8c3.6,0,7-2.1,7-4.9
		C20.9,21.6,0,24.7,0,10.8C0,4,4.8,0,13.5,0c3.6,0,7.3,1.1,9.7,2c1.1,0.4,1.8,1.4,1.8,2.7c0,1.6-1.2,2.8-2.9,2.8
		c-0.3,0-0.6-0.1-0.9-0.1c-2.1-0.6-5.3-1.4-7.5-1.4c-7,0-7.2,4.2-7.2,5.3c0,8,20.9,5.3,20.9,18.5c0,6.2-7.5,10-12.9,10
		c-4.2,0-8.1-0.3-12.2-2.3C1.4,36.9,0.6,35.9,0.6,34.6z"/>
	<path class="st0" d="M55.4,28.1L45.1,17.2V36c0,1.8-1.5,3.3-3.3,3.3s-3.3-1.5-3.3-3.3V1.2c0.1-0.4,0.6-0.8,1.1-0.8
		c0.5,0,1,0.4,1.3,0.8L56.5,19c0.3,0.3,0.3,0.4,0.6,0.4c0.3,0,0.3-0.1,0.6-0.4L73.3,1.2c0.3-0.3,0.8-0.8,1.3-0.8
		c0.5,0,1,0.3,1.1,0.8V36c0,1.8-1.5,3.3-3.3,3.3s-3.3-1.5-3.3-3.3V17.2L58.9,28.1c-0.4,0.5-1,0.8-1.8,0.8
		C56.3,28.9,55.8,28.6,55.4,28.1z"/>
	<path class="st0" d="M106.2,1.7l16.9,32.9c0.2,0.4,0.3,0.9,0.3,1.4c0,1.8-1.4,3.3-3.2,3.3c-1.3,0-2.4-0.7-2.9-1.8l-3.7-6.9H95.2
		l-3.8,6.9c-0.5,1.1-1.6,1.8-2.9,1.8c-1.8,0-3.2-1.5-3.2-3.3c0-0.5,0.1-1,0.3-1.4l16.9-32.9c0.3-0.7,1-1.2,1.8-1.2
		C105.2,0.5,105.9,1,106.2,1.7z M98.3,24.9h12.2l-6.2-11.3L98.3,24.9z"/>
	<path class="st0" d="M147.4,24.5h-7.9V36c0,1.8-1.5,3.3-3.3,3.3S133,37.8,133,36V3.8c0-1.8,1.5-3.3,3.3-3.3h15
		c6.2,0,11.3,5.1,11.3,12c0,5.2-3.2,9.5-7.7,11.5l5.1,10.1c0.3,0.5,0.5,1.1,0.5,1.8c0,1.9-1.5,3.4-3.5,3.4c-1.4,0-2.5-0.8-3-1.8
		L147.4,24.5z M155.9,12.6c0-3.7-2.3-6.2-5.3-6.2h-11.1v12.2h11.1C153.6,18.6,155.9,16.3,155.9,12.6z"/>
	<path class="st0" d="M181.4,6.4h-7.7c-1.6,0-2.9-1.3-2.9-2.9c0-1.6,1.3-3,2.9-3h22c1.6,0,2.9,1.4,2.9,3c0,1.6-1.3,2.9-2.9,2.9h-7.7
		V36c0,1.8-1.5,3.3-3.3,3.3c-1.8,0-3.3-1.5-3.3-3.3V6.4z"/>
	<path class="st1" d="M188.6,58.2c-9.3,0-18.6-3.5-25.6-10.6c-1.3-1.3-1.3-3.4,0-4.7c1.3-1.3,3.4-1.3,4.7,0
		c11.5,11.5,30.3,11.5,41.8,0c1.3-1.3,3.4-1.3,4.7,0c1.3,1.3,1.3,3.4,0,4.7C207.2,54.7,197.9,58.2,188.6,58.2z"/>
	<circle class="st2" cx="209.9" cy="26.4" r="5.3"/>
</g>
</svg>
