<?xml version="1.0" encoding="utf-8"?>
<!-- Generator: Adobe Illustrator 21.0.2, SVG Export Plug-In . SVG Version: 6.00 Build 0)  -->
<svg version="1.1" id="Camada_1" xmlns="http://www.w3.org/2000/svg" xmlns:xlink="http://www.w3.org/1999/xlink" x="0px" y="0px"
	 viewBox="0 0 240.1 36.8" style="enable-background:new 0 0 240.1 36.8;" xml:space="preserve" width="240.05px" height="36.807px">
<style type="text/css">
	.st0{fill:#5DC3F0;}
	.st1{fill:#F2977A;}
	.st2{fill:#8E82BC;}
	.st3{fill:#006AA4;}
</style>
<g>
	<path class="st0" d="M75.6,1.2L63.3,35c-0.2,0.6,0.2,1.3,0.9,1.3h9.6c0.4,0,0.8-0.3,0.9-0.7l7.9-23.7l7.9,23.7
		c0.1,0.4,0.5,0.7,0.9,0.7h9.6c0.7,0,1.1-0.7,0.9-1.3L89.7,1.2c-0.1-0.4-0.5-0.6-0.9-0.6H76.5C76.1,0.5,75.7,0.8,75.6,1.2"/>
	<path class="st1" d="M162.9,0.9l-11.3,12.8L140.4,0.9c-0.2-0.2-0.4-0.3-0.7-0.3h-8.1c-0.5,0-1,0.4-1,1v33.8c0,0.5,0.4,1,1,1h9.6
		c0.5,0,1-0.4,1-1V18.7l9.5,11.2l9.5-11.2v16.7c0,0.5,0.4,1,1,1h9.6c0.5,0,1-0.4,1-1V1.5c0-0.5-0.4-1-1-1h-8.1
		C163.4,0.5,163.1,0.6,162.9,0.9"/>
	<path class="st2" d="M213.6,1.2L201.3,35c-0.2,0.6,0.2,1.3,0.9,1.3h9.6c0.4,0,0.8-0.3,0.9-0.7l7.9-23.7l7.9,23.7
		c0.1,0.4,0.5,0.7,0.9,0.7h9.6c0.7,0,1.1-0.7,0.9-1.3L227.7,1.2c-0.1-0.4-0.5-0.6-0.9-0.6h-12.3C214.1,0.5,213.7,0.8,213.6,1.2"/>
	<path class="st3" d="M24.6,18.2v7.2c-1.7,0.5-3.4,0.8-4.7,0.8c-4.8,0-7.9-2.8-7.9-7.7c0-5,3.1-7.8,7.4-7.8c3,0,5.8,0.8,8,2.2
		c0.5,0.3,1.1,0.1,1.3-0.3l4.2-7.1c0.3-0.4,0.1-1-0.3-1.3C29.1,1.7,24.4,0,19,0C8.5,0,0,6.8,0,18.5C0,30,8.5,36.8,19,36.8
		c5.3,0,11.9-2.3,15.3-4.9c0.2-0.2,0.4-0.5,0.4-0.8v-13c0-0.5-0.4-1-1-1h-8.2C25,17.2,24.6,17.6,24.6,18.2"/>
</g>
</svg>
