<?xml version="1.0" encoding="utf-8"?>
<!-- Generator: Adobe Illustrator 16.0.0, SVG Export Plug-In . SVG Version: 6.00 Build 0)  -->
<!DOCTYPE svg PUBLIC "-//W3C//DTD SVG 1.1//EN" "http://www.w3.org/Graphics/SVG/1.1/DTD/svg11.dtd">
<svg version="1.1" id="Camada_1" xmlns="http://www.w3.org/2000/svg" xmlns:xlink="http://www.w3.org/1999/xlink" x="0px" y="0px"
	 width="30px" height="30px" viewBox="0 0 30 30" enable-background="new 0 0 30 30" xml:space="preserve">
<path fill="#92C9BB" d="M14.906,0.945c-1.098,0-2.077,0.459-2.937,1.375l-9.454,9.551c-1.241,0.821-1.862,2.002-1.862,3.545
	c0,1.545,0.621,2.727,1.862,3.545l9.454,9.552c0.859,0.917,1.839,1.375,2.937,1.375c1.146,0,2.148-0.446,3.008-1.338
	c0.859-0.892,1.289-1.893,1.289-3.003c0-1.109-0.43-2.098-1.289-2.967l-2.936-2.966h10.026c1.289,0,2.304-0.41,3.044-1.23
	c0.741-0.82,1.11-1.809,1.11-2.967c0-1.158-0.369-2.146-1.11-2.967c-0.74-0.82-1.755-1.23-3.044-1.23H14.978l2.936-2.967
	c0.859-0.868,1.289-1.856,1.289-2.966c0-1.109-0.43-2.11-1.289-3.003C17.054,1.392,16.052,0.945,14.906,0.945L14.906,0.945z"/>
</svg>
