<?xml version="1.0" encoding="utf-8"?>
<!-- Generator: Adobe Illustrator 18.1.1, SVG Export Plug-In . SVG Version: 6.00 Build 0)  -->
<svg version="1.1" id="Camada_1" xmlns="http://www.w3.org/2000/svg" xmlns:xlink="http://www.w3.org/1999/xlink" x="0px" y="0px"
	 viewBox="-245 247 20 20" enable-background="new -245 247 20 20" xml:space="preserve">
<g>
	<g>
		<g>
			<path fill="#92C9BB" d="M-236.1,264.3c-4.6,0-8.4-3.7-8.4-8.4s3.7-8.4,8.4-8.4c4.6,0,8.4,3.7,8.4,8.4S-231.5,264.3-236.1,264.3z
				 M-236.1,250.6c-2.9,0-5.3,2.4-5.3,5.3c0,2.9,2.4,5.3,5.3,5.3c2.9,0,5.3-2.4,5.3-5.3C-230.8,253-233.2,250.6-236.1,250.6z"/>
		</g>
		<g>
			<path fill="#92C9BB" d="M-227.1,266.5c-0.4,0-0.7-0.1-1-0.4l-4.3-4c-0.6-0.6-0.6-1.5-0.1-2.1c0.6-0.6,1.5-0.6,2.1-0.1l4.3,4
				c0.6,0.6,0.6,1.5,0.1,2.1C-226.2,266.3-226.7,266.5-227.1,266.5z"/>
		</g>
	</g>
</g>
<g display="none">
	<g display="inline">
		<g>
			<path fill="#92C9BB" d="M-226.1,266.3h-17.8c-0.4,0-0.9-0.2-1-0.6c-0.2-0.4-0.1-0.9,0.2-1.2c0.1-0.2,3.5-3.7,9.8-3.7
				c6.3,0,9.6,3.6,9.7,3.8c0.3,0.3,0.4,0.8,0.2,1.2S-225.6,266.3-226.1,266.3z M-240.3,264h10.6c-1.3-0.6-3.1-1.1-5.3-1.1
				S-238.9,263.4-240.3,264z"/>
		</g>
	</g>
	<g display="inline">
		<path fill="#92C9BB" d="M-235,263c-3.3,0-6-3.2-6-7.2c0-4,2.7-7.2,6-7.2c3.3,0,6,3.2,6,7.2C-229,259.7-231.7,263-235,263z
			 M-235,250.8c-2,0-3.7,2.2-3.7,5c0,2.7,1.7,5,3.7,5s3.7-2.2,3.7-5C-231.3,253-232.9,250.8-235,250.8z"/>
	</g>
</g>
<g display="none">
	<g display="inline">
		<g>
			<path fill="#92C9BB" d="M-227.6,251.8h-14.7c-0.8,0-1.5-0.7-1.5-1.5s0.7-1.5,1.5-1.5h14.7c0.8,0,1.5,0.7,1.5,1.5
				S-226.8,251.8-227.6,251.8z"/>
		</g>
	</g>
	<g display="inline">
		<g>
			<path fill="#92C9BB" d="M-227.6,258.8h-14.7c-0.8,0-1.5-0.7-1.5-1.5c0-0.8,0.7-1.5,1.5-1.5h14.7c0.8,0,1.5,0.7,1.5,1.5
				C-226.1,258.2-226.8,258.8-227.6,258.8z"/>
		</g>
	</g>
	<g display="inline">
		<g>
			<path fill="#92C9BB" d="M-227.6,265.8h-14.7c-0.8,0-1.5-0.7-1.5-1.5c0-0.8,0.7-1.5,1.5-1.5h14.7c0.8,0,1.5,0.7,1.5,1.5
				C-226.1,265.2-226.8,265.8-227.6,265.8z"/>
		</g>
	</g>
</g>
</svg>
